<?xml version="1.0" encoding="UTF-8" standalone="no"?>
<!DOCTYPE svg PUBLIC "-//W3C//DTD SVG 1.1//EN"
        "http://www.w3.org/Graphics/SVG/1.1/DTD/svg11.dtd">
<!-- Generated by graphviz version 2.40.1 (20161225.0304)
 -->
<!-- Title: G1 Pages: 1 -->
<svg width="369pt" height="566pt"
     viewBox="0.00 0.00 369.00 566.00" xmlns="http://www.w3.org/2000/svg">
    <g id="graph0" class="graph" transform="scale(1 1) rotate(0) translate(4 562)">
        <title>G1</title>
        <polygon fill="#ffffff" stroke="transparent" points="-4,4 -4,-562 365,-562 365,4 -4,4"/>
        <!-- s0 -->
        <g id="node1" class="node">
            <title>s0</title>
            <ellipse fill="none" stroke="#000000" cx="214" cy="-540" rx="27" ry="18"/>
            <text text-anchor="middle" x="214" y="-536.3" font-family="Times,serif" font-size="14.00" fill="#000000">
                s0
            </text>
        </g>
        <!-- s1 -->
        <g id="node2" class="node">
            <title>s1</title>
            <ellipse fill="none" stroke="#000000" cx="84" cy="-453" rx="27" ry="18"/>
            <text text-anchor="middle" x="84" y="-449.3" font-family="Times,serif" font-size="14.00" fill="#000000">s1
            </text>
        </g>
        <!-- s0&#45;&gt;s1 -->
        <g id="edge1" class="edge">
            <title>s0&#45;&gt;s1</title>
            <path fill="none" stroke="#000000"
                  d="M189.6805,-532.0132C172.8857,-525.8432 150.5105,-516.2856 133,-504 122.2717,-496.4729 111.9716,-486.3569 103.6075,-477.1193"/>
            <polygon fill="#000000" stroke="#000000"
                     points="106.0069,-474.5458 96.7936,-469.3147 100.7338,-479.1496 106.0069,-474.5458"/>
            <text text-anchor="middle" x="146.5" y="-492.8" font-family="Times,serif" font-size="14.00" fill="#000000">
                [r1]
            </text>
        </g>
        <!-- s3 -->
        <g id="node3" class="node">
            <title>s3</title>
            <ellipse fill="none" stroke="#000000" cx="226" cy="-192" rx="27" ry="18"/>
            <text text-anchor="middle" x="226" y="-188.3" font-family="Times,serif" font-size="14.00" fill="#000000">
                s3
            </text>
        </g>
        <!-- s0&#45;&gt;s3 -->
        <g id="edge2" class="edge">
            <title>s0&#45;&gt;s3</title>
            <path fill="none" stroke="#000000"
                  d="M226.437,-524.007C238.1791,-507.275 254,-479.7648 254,-453 254,-453 254,-453 254,-279 254,-257.9103 246.4522,-235.2679 239.1942,-218.3701"/>
            <polygon fill="#000000" stroke="#000000"
                     points="242.3277,-216.8051 235.0135,-209.14 235.9512,-219.6932 242.3277,-216.8051"/>
            <text text-anchor="middle" x="267.5" y="-362.3" font-family="Times,serif" font-size="14.00" fill="#000000">
                [r2]
            </text>
        </g>
        <!-- s2 -->
        <g id="node4" class="node">
            <title>s2</title>
            <ellipse fill="none" stroke="#000000" cx="157" cy="-366" rx="27" ry="18"/>
            <text text-anchor="middle" x="157" y="-362.3" font-family="Times,serif" font-size="14.00" fill="#000000">
                s2
            </text>
        </g>
        <!-- s1&#45;&gt;s2 -->
        <g id="edge3" class="edge">
            <title>s1&#45;&gt;s2</title>
            <path fill="none" stroke="#000000"
                  d="M86.8903,-435.0602C89.2877,-424.5824 93.5552,-411.5805 101,-402 107.5422,-393.581 116.6412,-386.5548 125.6048,-381.011"/>
            <polygon fill="#000000" stroke="#000000"
                     points="127.4825,-383.9691 134.4235,-375.9645 124.0058,-377.8935 127.4825,-383.9691"/>
            <text text-anchor="middle" x="130.5" y="-405.8" font-family="Times,serif" font-size="14.00" fill="#000000">
                [alpha1]
            </text>
        </g>
        <!-- s5 -->
        <g id="node5" class="node">
            <title>s5</title>
            <ellipse fill="none" stroke="#000000" cx="122" cy="-105" rx="27" ry="18"/>
            <text text-anchor="middle" x="122" y="-101.3" font-family="Times,serif" font-size="14.00" fill="#000000">
                s5
            </text>
        </g>
        <!-- s1&#45;&gt;s5 -->
        <g id="edge4" class="edge">
            <title>s1&#45;&gt;s5</title>
            <path fill="none" stroke="#000000"
                  d="M78.4336,-435.2031C73.4756,-417.7569 67,-390.3159 67,-366 67,-366 67,-366 67,-192 67,-166.969 83.4673,-143.2826 98.3808,-126.9638"/>
            <polygon fill="#000000" stroke="#000000"
                     points="101.084,-129.2024 105.4982,-119.5709 96.0412,-124.3475 101.084,-129.2024"/>
            <text text-anchor="middle" x="80.5" y="-275.3" font-family="Times,serif" font-size="14.00" fill="#000000">
                [r2]
            </text>
        </g>
        <!-- s3&#45;&gt;s5 -->
        <g id="edge7" class="edge">
            <title>s3&#45;&gt;s5</title>
            <path fill="none" stroke="#000000"
                  d="M208.8265,-177.6337C191.8647,-163.4445 165.7534,-141.6014 146.593,-125.573"/>
            <polygon fill="#000000" stroke="#000000"
                     points="148.7698,-122.8308 138.8539,-119.099 144.2783,-128.1999 148.7698,-122.8308"/>
            <text text-anchor="middle" x="193.5" y="-144.8" font-family="Times,serif" font-size="14.00" fill="#000000">
                [r1]
            </text>
        </g>
        <!-- s4 -->
        <g id="node7" class="node">
            <title>s4</title>
            <ellipse fill="none" stroke="#000000" cx="226" cy="-105" rx="27" ry="18"/>
            <text text-anchor="middle" x="226" y="-101.3" font-family="Times,serif" font-size="14.00" fill="#000000">
                s4
            </text>
        </g>
        <!-- s3&#45;&gt;s4 -->
        <g id="edge8" class="edge">
            <title>s3&#45;&gt;s4</title>
            <path fill="none" stroke="#000000" d="M226,-173.9735C226,-162.1918 226,-146.5607 226,-133.1581"/>
            <polygon fill="#000000" stroke="#000000"
                     points="229.5001,-133.0033 226,-123.0034 222.5001,-133.0034 229.5001,-133.0033"/>
            <text text-anchor="middle" x="255.5" y="-144.8" font-family="Times,serif" font-size="14.00" fill="#000000">
                [alpha2]
            </text>
        </g>
        <!-- s2&#45;&gt;s0 -->
        <g id="edge5" class="edge">
            <title>s2&#45;&gt;s0</title>
            <path fill="none" stroke="#000000"
                  d="M161.8702,-383.9601C167.6662,-404.9674 177.8426,-440.7267 188,-471 192.6911,-484.9816 198.4254,-500.3527 203.314,-513.0312"/>
            <polygon fill="#000000" stroke="#000000"
                     points="200.1278,-514.4948 207.0171,-522.544 206.651,-511.9554 200.1278,-514.4948"/>
            <text text-anchor="middle" x="214" y="-449.3" font-family="Times,serif" font-size="14.00" fill="#000000">
                [beta1]
            </text>
        </g>
        <!-- s6 -->
        <g id="node6" class="node">
            <title>s6</title>
            <ellipse fill="none" stroke="#000000" cx="157" cy="-279" rx="27" ry="18"/>
            <text text-anchor="middle" x="157" y="-275.3" font-family="Times,serif" font-size="14.00" fill="#000000">
                s6
            </text>
        </g>
        <!-- s2&#45;&gt;s6 -->
        <g id="edge6" class="edge">
            <title>s2&#45;&gt;s6</title>
            <path fill="none" stroke="#000000" d="M157,-347.9735C157,-336.1918 157,-320.5607 157,-307.1581"/>
            <polygon fill="#000000" stroke="#000000"
                     points="160.5001,-307.0033 157,-297.0034 153.5001,-307.0034 160.5001,-307.0033"/>
            <text text-anchor="middle" x="170.5" y="-318.8" font-family="Times,serif" font-size="14.00" fill="#000000">
                [r2]
            </text>
        </g>
        <!-- s5&#45;&gt;s6 -->
        <g id="edge11" class="edge">
            <title>s5&#45;&gt;s6</title>
            <path fill="none" stroke="#000000"
                  d="M122.0503,-123.0652C122.452,-144.1713 124.2043,-180.0233 131,-210 134.2382,-224.2841 139.7753,-239.5828 144.9096,-252.1359"/>
            <polygon fill="#000000" stroke="#000000"
                     points="141.7695,-253.6967 148.8892,-261.5427 148.2164,-250.9693 141.7695,-253.6967"/>
            <text text-anchor="middle" x="160.5" y="-188.3" font-family="Times,serif" font-size="14.00" fill="#000000">
                [alpha1]
            </text>
        </g>
        <!-- s7 -->
        <g id="node8" class="node">
            <title>s7</title>
            <ellipse fill="none" stroke="#000000" cx="122" cy="-18" rx="27" ry="18"/>
            <text text-anchor="middle" x="122" y="-14.3" font-family="Times,serif" font-size="14.00" fill="#000000">s7
            </text>
        </g>
        <!-- s5&#45;&gt;s7 -->
        <g id="edge12" class="edge">
            <title>s5&#45;&gt;s7</title>
            <path fill="none" stroke="#000000" d="M122,-86.9735C122,-75.1918 122,-59.5607 122,-46.1581"/>
            <polygon fill="#000000" stroke="#000000"
                     points="125.5001,-46.0033 122,-36.0034 118.5001,-46.0034 125.5001,-46.0033"/>
            <text text-anchor="middle" x="151.5" y="-57.8" font-family="Times,serif" font-size="14.00" fill="#000000">
                [alpha2]
            </text>
        </g>
        <!-- s6&#45;&gt;s3 -->
        <g id="edge13" class="edge">
            <title>s6&#45;&gt;s3</title>
            <path fill="none" stroke="#000000"
                  d="M165.9867,-261.7138C171.6757,-251.4677 179.5376,-238.4799 188,-228 192.1214,-222.8961 196.94,-217.8081 201.7349,-213.1329"/>
            <polygon fill="#000000" stroke="#000000"
                     points="204.246,-215.5762 209.1466,-206.1829 199.4579,-210.47 204.246,-215.5762"/>
            <text text-anchor="middle" x="214" y="-231.8" font-family="Times,serif" font-size="14.00" fill="#000000">
                [beta1]
            </text>
        </g>
        <!-- s4&#45;&gt;s0 -->
        <g id="edge9" class="edge">
            <title>s4&#45;&gt;s0</title>
            <path fill="none" stroke="#000000"
                  d="M249.5925,-113.8501C262.7067,-119.8001 278.4567,-128.8001 289,-141 304.92,-159.4213 309,-167.6527 309,-192 309,-453 309,-453 309,-453 309,-487.6094 274.2842,-512.1679 246.8246,-526.1799"/>
            <polygon fill="#000000" stroke="#000000"
                     points="244.9632,-523.1921 237.4832,-530.6954 248.0097,-529.4944 244.9632,-523.1921"/>
            <text text-anchor="middle" x="335" y="-318.8" font-family="Times,serif" font-size="14.00" fill="#000000">
                [beta2]
            </text>
        </g>
        <!-- s4&#45;&gt;s7 -->
        <g id="edge10" class="edge">
            <title>s4&#45;&gt;s7</title>
            <path fill="none" stroke="#000000"
                  d="M215.1668,-88.4984C207.5898,-77.7957 196.7531,-64.0289 185,-54 175.5131,-45.9048 163.942,-38.6869 153.3174,-32.8784"/>
            <polygon fill="#000000" stroke="#000000"
                     points="154.7823,-29.6945 144.3006,-28.1501 151.5314,-35.8939 154.7823,-29.6945"/>
            <text text-anchor="middle" x="211.5" y="-57.8" font-family="Times,serif" font-size="14.00" fill="#000000">
                [r1]
            </text>
        </g>
        <!-- s7&#45;&gt;s1 -->
        <g id="edge14" class="edge">
            <title>s7&#45;&gt;s1</title>
            <path fill="none" stroke="#000000"
                  d="M96.4248,-23.9855C60.6505,-34.0525 0,-58.0439 0,-105 0,-366 0,-366 0,-366 0,-397.649 29.1252,-422.1912 53.0756,-437.0225"/>
            <polygon fill="#000000" stroke="#000000"
                     points="51.5352,-440.1768 61.93,-442.2258 55.0818,-434.1417 51.5352,-440.1768"/>
            <text text-anchor="middle" x="26" y="-231.8" font-family="Times,serif" font-size="14.00" fill="#000000">
                [beta2]
            </text>
        </g>
    </g>
</svg>
