<?xml version="1.0" encoding="UTF-8" standalone="no"?>
<!DOCTYPE svg PUBLIC "-//W3C//DTD SVG 1.1//EN"
        "http://www.w3.org/Graphics/SVG/1.1/DTD/svg11.dtd">
<!-- Generated by graphviz version 2.40.1 (20161225.0304)
 -->
<!-- Title: G1 Pages: 1 -->
<svg width="384pt" height="566pt"
     viewBox="0.00 0.00 384.00 566.00" xmlns="http://www.w3.org/2000/svg">
    <g id="graph0" class="graph" transform="scale(1 1) rotate(0) translate(4 562)">
        <title>G1</title>
        <polygon fill="#ffffff" stroke="transparent" points="-4,4 -4,-562 380,-562 380,4 -4,4"/>
        <!-- s0_n_m_y -->
        <g id="node1" class="node">
            <title>s0_n_m_y</title>
            <ellipse fill="none" stroke="#000000" cx="214" cy="-540" rx="55.7903" ry="18"/>
            <text text-anchor="middle" x="214" y="-536.3" font-family="Times,serif" font-size="14.00" fill="#000000">
                s0_n_m_y
            </text>
        </g>
        <!-- s1_w_m_y -->
        <g id="node2" class="node">
            <title>s1_w_m_y</title>
            <ellipse fill="none" stroke="#000000" cx="74" cy="-453" rx="57.6901" ry="18"/>
            <text text-anchor="middle" x="74" y="-449.3" font-family="Times,serif" font-size="14.00" fill="#000000">
                s1_w_m_y
            </text>
        </g>
        <!-- s0_n_m_y&#45;&gt;s1_w_m_y -->
        <g id="edge1" class="edge">
            <title>s0_n_m_y&#45;&gt;s1_w_m_y</title>
            <path fill="none" stroke="#000000"
                  d="M177.3468,-526.4079C163.027,-520.4153 146.7726,-512.7408 133,-504 121.0031,-496.3861 108.9272,-486.4441 98.8531,-477.3622"/>
            <polygon fill="#000000" stroke="#000000"
                     points="100.9609,-474.5442 91.2429,-470.324 96.2081,-479.6834 100.9609,-474.5442"/>
            <text text-anchor="middle" x="146.5" y="-492.8" font-family="Times,serif" font-size="14.00" fill="#000000">
                [r1]
            </text>
        </g>
        <!-- s3_n_x_y -->
        <g id="node3" class="node">
            <title>s3_n_x_y</title>
            <ellipse fill="none" stroke="#000000" cx="243" cy="-192" rx="52.7911" ry="18"/>
            <text text-anchor="middle" x="243" y="-188.3" font-family="Times,serif" font-size="14.00" fill="#000000">
                s3_n_x_y
            </text>
        </g>
        <!-- s0_n_m_y&#45;&gt;s3_n_x_y -->
        <g id="edge2" class="edge">
            <title>s0_n_m_y&#45;&gt;s3_n_x_y</title>
            <path fill="none" stroke="#000000"
                  d="M227.5422,-522.4172C239.1465,-505.567 254,-478.9336 254,-453 254,-453 254,-453 254,-279 254,-259.3926 251.216,-237.4945 248.4491,-220.573"/>
            <polygon fill="#000000" stroke="#000000"
                     points="251.8161,-219.503 246.6628,-210.2459 244.9185,-220.6961 251.8161,-219.503"/>
            <text text-anchor="middle" x="267.5" y="-362.3" font-family="Times,serif" font-size="14.00" fill="#000000">
                [r2]
            </text>
        </g>
        <!-- s2_c_m -->
        <g id="node4" class="node">
            <title>s2_c_m</title>
            <ellipse fill="none" stroke="#000000" cx="164" cy="-366" rx="45.4919" ry="18"/>
            <text text-anchor="middle" x="164" y="-362.3" font-family="Times,serif" font-size="14.00" fill="#000000">
                s2_c_m
            </text>
        </g>
        <!-- s1_w_m_y&#45;&gt;s2_c_m -->
        <g id="edge3" class="edge">
            <title>s1_w_m_y&#45;&gt;s2_c_m</title>
            <path fill="none" stroke="#000000"
                  d="M80.5996,-434.8975C85.1193,-424.362 91.9403,-411.3566 101,-402 107.6283,-395.1545 115.8397,-389.2113 124.1201,-384.235"/>
            <polygon fill="#000000" stroke="#000000"
                     points="126.0529,-387.1638 133.0606,-379.2176 122.6271,-381.0594 126.0529,-387.1638"/>
            <text text-anchor="middle" x="130.5" y="-405.8" font-family="Times,serif" font-size="14.00" fill="#000000">
                [alpha1]
            </text>
        </g>
        <!-- s5_w_x_y -->
        <g id="node5" class="node">
            <title>s5_w_x_y</title>
            <ellipse fill="none" stroke="#000000" cx="113" cy="-105" rx="54.6905" ry="18"/>
            <text text-anchor="middle" x="113" y="-101.3" font-family="Times,serif" font-size="14.00" fill="#000000">
                s5_w_x_y
            </text>
        </g>
        <!-- s1_w_m_y&#45;&gt;s5_w_x_y -->
        <g id="edge4" class="edge">
            <title>s1_w_m_y&#45;&gt;s5_w_x_y</title>
            <path fill="none" stroke="#000000"
                  d="M71.6691,-434.7038C69.6328,-417.1221 67,-389.7902 67,-366 67,-366 67,-366 67,-192 67,-169.303 79.3868,-146.7346 91.3049,-130.2732"/>
            <polygon fill="#000000" stroke="#000000"
                     points="94.1412,-132.3259 97.4265,-122.2533 88.5769,-128.0787 94.1412,-132.3259"/>
            <text text-anchor="middle" x="80.5" y="-275.3" font-family="Times,serif" font-size="14.00" fill="#000000">
                [r2]
            </text>
        </g>
        <!-- s3_n_x_y&#45;&gt;s5_w_x_y -->
        <g id="edge7" class="edge">
            <title>s3_n_x_y&#45;&gt;s5_w_x_y</title>
            <path fill="none" stroke="#000000"
                  d="M218.8527,-175.8399C198.278,-162.0706 168.5196,-142.1554 145.7918,-126.9453"/>
            <polygon fill="#000000" stroke="#000000"
                     points="147.7165,-124.0219 137.4592,-121.3688 143.8232,-129.8393 147.7165,-124.0219"/>
            <text text-anchor="middle" x="199.5" y="-144.8" font-family="Times,serif" font-size="14.00" fill="#000000">
                [r1]
            </text>
        </g>
        <!-- s4_n_d -->
        <g id="node7" class="node">
            <title>s4_n_d</title>
            <ellipse fill="none" stroke="#000000" cx="243" cy="-105" rx="42.7926" ry="18"/>
            <text text-anchor="middle" x="243" y="-101.3" font-family="Times,serif" font-size="14.00" fill="#000000">
                s4_n_d
            </text>
        </g>
        <!-- s3_n_x_y&#45;&gt;s4_n_d -->
        <g id="edge8" class="edge">
            <title>s3_n_x_y&#45;&gt;s4_n_d</title>
            <path fill="none" stroke="#000000" d="M243,-173.9735C243,-162.1918 243,-146.5607 243,-133.1581"/>
            <polygon fill="#000000" stroke="#000000"
                     points="246.5001,-133.0033 243,-123.0034 239.5001,-133.0034 246.5001,-133.0033"/>
            <text text-anchor="middle" x="272.5" y="-144.8" font-family="Times,serif" font-size="14.00" fill="#000000">
                [alpha2]
            </text>
        </g>
        <!-- s2_c_m&#45;&gt;s0_n_m_y -->
        <g id="edge5" class="edge">
            <title>s2_c_m&#45;&gt;s0_n_m_y</title>
            <path fill="none" stroke="#000000"
                  d="M167.3466,-384.0285C171.4357,-405.1001 178.9406,-440.9198 188,-471 192.1947,-484.9276 197.7878,-500.0848 202.7116,-512.6363"/>
            <polygon fill="#000000" stroke="#000000"
                     points="199.5195,-514.0806 206.4774,-522.0705 206.0207,-511.4855 199.5195,-514.0806"/>
            <text text-anchor="middle" x="214" y="-449.3" font-family="Times,serif" font-size="14.00" fill="#000000">
                [beta1]
            </text>
        </g>
        <!-- s6_c_x -->
        <g id="node6" class="node">
            <title>s6_c_x</title>
            <ellipse fill="none" stroke="#000000" cx="164" cy="-279" rx="42.4939" ry="18"/>
            <text text-anchor="middle" x="164" y="-275.3" font-family="Times,serif" font-size="14.00" fill="#000000">
                s6_c_x
            </text>
        </g>
        <!-- s2_c_m&#45;&gt;s6_c_x -->
        <g id="edge6" class="edge">
            <title>s2_c_m&#45;&gt;s6_c_x</title>
            <path fill="none" stroke="#000000" d="M164,-347.9735C164,-336.1918 164,-320.5607 164,-307.1581"/>
            <polygon fill="#000000" stroke="#000000"
                     points="167.5001,-307.0033 164,-297.0034 160.5001,-307.0034 167.5001,-307.0033"/>
            <text text-anchor="middle" x="177.5" y="-318.8" font-family="Times,serif" font-size="14.00" fill="#000000">
                [r2]
            </text>
        </g>
        <!-- s5_w_x_y&#45;&gt;s6_c_x -->
        <g id="edge11" class="edge">
            <title>s5_w_x_y&#45;&gt;s6_c_x</title>
            <path fill="none" stroke="#000000"
                  d="M112.0716,-123.3356C111.554,-144.6957 112.4436,-180.786 122,-210 127.0172,-225.3375 136.0099,-240.8279 144.3904,-253.2348"/>
            <polygon fill="#000000" stroke="#000000"
                     points="141.7079,-255.5052 150.319,-261.6778 147.4366,-251.4825 141.7079,-255.5052"/>
            <text text-anchor="middle" x="151.5" y="-188.3" font-family="Times,serif" font-size="14.00" fill="#000000">
                [alpha1]
            </text>
        </g>
        <!-- s7_w_d -->
        <g id="node8" class="node">
            <title>s7_w_d</title>
            <ellipse fill="none" stroke="#000000" cx="113" cy="-18" rx="44.6926" ry="18"/>
            <text text-anchor="middle" x="113" y="-14.3" font-family="Times,serif" font-size="14.00" fill="#000000">
                s7_w_d
            </text>
        </g>
        <!-- s5_w_x_y&#45;&gt;s7_w_d -->
        <g id="edge12" class="edge">
            <title>s5_w_x_y&#45;&gt;s7_w_d</title>
            <path fill="none" stroke="#000000" d="M113,-86.9735C113,-75.1918 113,-59.5607 113,-46.1581"/>
            <polygon fill="#000000" stroke="#000000"
                     points="116.5001,-46.0033 113,-36.0034 109.5001,-46.0034 116.5001,-46.0033"/>
            <text text-anchor="middle" x="142.5" y="-57.8" font-family="Times,serif" font-size="14.00" fill="#000000">
                [alpha2]
            </text>
        </g>
        <!-- s6_c_x&#45;&gt;s3_n_x_y -->
        <g id="edge13" class="edge">
            <title>s6_c_x&#45;&gt;s3_n_x_y</title>
            <path fill="none" stroke="#000000"
                  d="M169.6538,-261.0753C173.596,-250.6028 179.6546,-237.6012 188,-228 192.8897,-222.3745 198.8644,-217.2762 205.0521,-212.8022"/>
            <polygon fill="#000000" stroke="#000000"
                     points="207.1928,-215.5806 213.5401,-207.0975 203.2881,-209.7708 207.1928,-215.5806"/>
            <text text-anchor="middle" x="214" y="-231.8" font-family="Times,serif" font-size="14.00" fill="#000000">
                [beta1]
            </text>
        </g>
        <!-- s4_n_d&#45;&gt;s0_n_m_y -->
        <g id="edge9" class="edge">
            <title>s4_n_d&#45;&gt;s0_n_m_y</title>
            <path fill="none" stroke="#000000"
                  d="M274.3773,-117.3652C285.634,-123.1142 297.6055,-130.9416 306,-141 321.4017,-159.4545 324,-167.963 324,-192 324,-453 324,-453 324,-453 324,-486.5051 292.2169,-509.1278 262.8193,-522.8865"/>
            <polygon fill="#000000" stroke="#000000"
                     points="261.1361,-519.8036 253.4018,-527.0447 263.9635,-526.2072 261.1361,-519.8036"/>
            <text text-anchor="middle" x="350" y="-318.8" font-family="Times,serif" font-size="14.00" fill="#000000">
                [beta2]
            </text>
        </g>
        <!-- s4_n_d&#45;&gt;s7_w_d -->
        <g id="edge10" class="edge">
            <title>s4_n_d&#45;&gt;s7_w_d</title>
            <path fill="none" stroke="#000000"
                  d="M223.2733,-88.8922C210.1867,-78.4825 192.4544,-64.8957 176,-54 167.4136,-48.3143 157.8866,-42.5887 148.8954,-37.4286"/>
            <polygon fill="#000000" stroke="#000000"
                     points="150.5654,-34.3522 140.1374,-32.4794 147.1215,-40.4465 150.5654,-34.3522"/>
            <text text-anchor="middle" x="210.5" y="-57.8" font-family="Times,serif" font-size="14.00" fill="#000000">
                [r1]
            </text>
        </g>
        <!-- s7_w_d&#45;&gt;s1_w_m_y -->
        <g id="edge14" class="edge">
            <title>s7_w_d&#45;&gt;s1_w_m_y</title>
            <path fill="none" stroke="#000000"
                  d="M76.9354,-28.9325C43.8652,-41.4556 0,-65.5095 0,-105 0,-366 0,-366 0,-366 0,-392.546 20.2372,-415.12 39.5456,-430.6166"/>
            <polygon fill="#000000" stroke="#000000"
                     points="37.6226,-433.5512 47.702,-436.8156 41.8583,-427.9781 37.6226,-433.5512"/>
            <text text-anchor="middle" x="26" y="-231.8" font-family="Times,serif" font-size="14.00" fill="#000000">
                [beta2]
            </text>
        </g>
    </g>
</svg>
